<svg version="1.0" xmlns="http://www.w3.org/2000/svg"
     width="130px" height="50px" viewBox="0 0 24 400"
 preserveAspectRatio="xMidYMid meet">
<g transform="translate(0.000000,512.000000) scale(0.100000,-0.100000)"
fill="#000000" stroke="none">
<path d="M1945 4948 c-60 -17 -133 -97 -169 -186 -49 -119 -74 -132 -263 -132
l-123 0 0 68 c0 118 -57 203 -155 232 -27 8 -108 11 -247 8 l-206 -3 -44 -30
c-28 -20 -53 -49 -71 -84 l-27 -55 0 -589 c0 -413 3 -601 11 -628 16 -52 64
-108 113 -130 36 -16 68 -19 250 -19 193 0 213 2 253 21 81 39 123 114 123
222 0 41 4 56 16 61 32 12 44 5 65 -44 26 -61 66 -97 125 -112 38 -10 44 -16
44 -38 -1 -24 -34 -39 -585 -279 -447 -195 -592 -262 -614 -285 -67 -72 -272
-333 -278 -354 -9 -36 17 -55 152 -112 l125 -53 0 -667 c0 -535 3 -670 13
-678 15 -13 2094 -922 2108 -922 13 0 2069 898 2097 916 l22 14 0 668 0 668
126 54 c136 58 165 83 147 123 -11 24 -259 332 -289 359 -11 9 -253 119 -539
243 -286 125 -522 229 -524 231 -3 2 7 17 21 32 57 60 72 129 44 197 l-15 35
40 0 39 0 0 -56 c0 -109 41 -183 123 -223 40 -19 60 -21 253 -21 182 0 214 3
250 19 49 22 97 78 113 130 8 27 11 215 11 628 l0 589 -27 55 c-18 35 -43 64
-71 84 l-44 30 -206 3 c-224 4 -263 -2 -321 -45 -47 -36 -81 -114 -81 -185 l0
-58 -168 0 -169 0 -174 131 c-96 72 -192 140 -214 152 -39 22 -48 22 -530 24
-320 1 -504 -2 -530 -9z m153 -175 c-80 -82 -88 -97 -88 -163 0 -66 23 -115
72 -150 76 -56 163 -48 241 20 l45 40 149 -1 148 0 449 -443 c411 -406 449
-446 449 -476 0 -22 -7 -39 -22 -52 -50 -40 -59 -34 -326 232 -261 261 -275
271 -317 233 -10 -9 -18 -25 -18 -37 0 -13 87 -107 252 -272 224 -225 251
-256 251 -285 0 -21 -7 -38 -22 -51 -50 -40 -59 -34 -326 232 -138 138 -258
250 -266 250 -28 0 -59 -30 -59 -58 0 -21 43 -69 215 -242 226 -227 234 -239
199 -288 -11 -16 -25 -22 -51 -22 -34 0 -50 13 -223 185 -148 147 -191 185
-212 185 -27 0 -58 -31 -58 -59 0 -8 71 -86 157 -172 136 -138 156 -162 156
-190 0 -21 -7 -38 -22 -51 -45 -36 -66 -26 -188 94 -107 106 -113 114 -113
152 -1 56 -31 118 -74 152 l-35 28 73 76 c104 106 120 181 61 271 -23 35 -94
79 -127 79 -10 0 -19 12 -23 33 -18 85 -94 147 -180 147 -62 0 -97 -20 -178
-98 l-67 -67 -32 39 c-17 21 -46 45 -64 52 -44 18 -118 18 -158 -1 -18 -9 -90
-74 -161 -145 -125 -127 -129 -130 -172 -130 l-43 0 0 350 0 350 141 0 c79 0
159 5 180 12 68 20 118 73 165 174 59 125 72 134 193 134 l95 0 -66 -67z
m1041 -77 c136 -101 206 -147 237 -155 23 -6 113 -11 198 -11 l156 0 0 -355 0
-355 -97 0 -98 1 -410 404 -410 404 -199 1 -199 0 -48 -45 c-54 -51 -95 -59
-129 -25 -40 40 -28 66 83 177 l103 103 310 0 310 0 193 -144z m-1924 119 c62
-30 60 -12 60 -645 0 -629 1 -616 -57 -646 -20 -10 -71 -14 -205 -14 -208 0
-234 8 -253 79 -7 28 -10 222 -8 603 3 616 1 592 63 623 44 21 353 21 400 0z
m3089 0 c63 -30 61 -5 64 -623 2 -381 -1 -575 -8 -603 -19 -71 -45 -79 -253
-79 -134 0 -185 4 -205 14 -58 30 -57 17 -57 646 0 631 -2 614 59 644 44 22
354 23 400 1z m-2000 -776 c18 -14 26 -30 26 -52 0 -27 -29 -60 -237 -269
-214 -214 -241 -238 -270 -238 -41 0 -73 30 -73 67 0 23 44 72 243 270 162
163 249 243 263 243 12 0 33 -9 48 -21z m-416 -55 c16 -11 22 -25 22 -52 0
-34 -10 -47 -118 -155 -101 -101 -122 -117 -150 -117 -39 0 -72 30 -72 67 0
21 26 53 123 150 129 130 148 140 195 107z m596 -125 c18 -14 26 -30 26 -52 0
-27 -29 -60 -237 -269 -214 -214 -241 -238 -270 -238 -41 0 -73 30 -73 67 0
23 44 72 243 270 162 163 249 243 263 243 12 0 33 -9 48 -21z m-56 -415 c16
-11 22 -25 22 -53 0 -34 -9 -46 -118 -154 -101 -100 -124 -117 -150 -117 -39
0 -72 31 -72 67 0 21 26 53 123 150 129 130 148 140 195 107z m-666 -71 c53
-17 57 -20 62 -55 9 -53 69 -113 128 -129 41 -11 47 -16 52 -47 11 -73 96
-142 176 -142 60 0 111 34 220 144 l104 105 116 -114 c126 -123 145 -133 237
-122 53 6 88 29 122 80 23 34 26 36 66 30 72 -9 147 27 186 90 17 29 20 30 81
28 73 -3 117 20 156 80 l23 36 484 -212 c267 -116 487 -214 491 -218 4 -4 -13
-15 -37 -26 -912 -400 -1860 -811 -1868 -811 -10 0 -344 145 -1501 650 -223
98 -403 181 -401 186 4 7 1017 458 1041 463 3 1 30 -7 62 -16z m-493 -849
c410 -179 846 -369 968 -422 123 -54 223 -100 223 -104 0 -4 -43 -61 -97 -126
l-96 -119 -176 77 c-97 42 -535 234 -974 425 -566 247 -796 352 -793 362 8 21
180 232 190 232 4 1 344 -146 755 -325z m3434 216 c48 -60 90 -115 93 -123 3
-10 -244 -122 -958 -435 -530 -231 -968 -422 -974 -424 -11 -3 -204 225 -204
239 0 5 42 26 93 47 50 22 486 212 967 423 481 210 880 382 885 382 6 0 49
-49 98 -109z m-3280 -744 c461 -201 851 -366 866 -366 23 0 42 18 117 111 l89
111 3 -768 c1 -422 1 -769 -1 -770 -2 -2 -439 187 -973 420 l-969 423 -3 608
c-2 575 -1 607 15 603 10 -3 395 -170 856 -372z m3145 -233 l-3 -606 -969
-424 c-533 -232 -971 -422 -973 -420 -2 2 -2 349 -1 771 l3 768 90 -111 c75
-92 95 -111 117 -111 24 0 641 265 1458 626 140 62 261 113 268 113 10 1 12
-123 10 -606z"/>
<path d="M3828 1287 c-141 -62 -263 -119 -272 -126 -25 -21 -20 -68 9 -87 25
-16 31 -14 228 71 392 170 391 170 363 227 -22 43 -56 34 -328 -85z"/>
</g>
</svg>
